# xmcd
#
# Track frame offsets:
#	150
#	32130
#	47720
#	64402
#	84189
#	98211
#	116866
#	134005
#	147919
#	166499
#
# Disc length: 2423 seconds
#
# Revision: 0
# Processed by: cddbd v1.5.2PL0 Copyright (c) Steve Scherf et al.
# Submitted via: EasyCDDAExtractor 16.0.6.1
#
DISCID=9109750a
DTITLE=Φαραντούρη Μαρία - Η μπαλάντα Μαουτχάουζεν-Κύκλος Φαραντούρη
DYEAR=2010
DGENRE=Έντεχνη λαϊκή
TTITLE0=Άσμα ασμάτων [Μ, Μ.Θεοδωράκης-Ι.Καμπανέλλης]
TTITLE1=Ο Αντώνης [Μ, Μ.Θεοδωράκης-Ι.Καμπανέλλης]
TTITLE2=Ο δραπέτης [Μ, Μ.Θεοδωράκης-Ι.Καμπανέλλης]
TTITLE3=Άμα τελειώσει ο πόλεμος [Μ, Μ.Θεοδωράκης-Ι.Καμπανέλλης]
TTITLE4=Το εκκρεμές [ΚΦ, Μ.Θεοδωράκης-Ν.Γκάτσος]
TTITLE5=Τ' όνειρο καπνός [ΚΦ, Μ.Θεοδωράκης-Ν.Γκάτσος]
TTITLE6=Κουράστηκα να σε κρατώ [ΚΦ, Μ.Θεοδωράκης-Δ.Χριστοδούλου]
TTITLE7=Στου κόσμου την ανηφοριά [ΚΦ, Μ.Θεοδωράκης-Ν.Γκάτσος]
TTITLE8=Ο ίσκιος έπεσε βαρύς [ΚΦ, Μ.Θεοδωράκης-Γερ.Σταύρου]
TTITLE9=Πήρα τους δρόμους τ' ουρανού [ΚΦ, Μ.Θεοδωράκης-Τ.Λειβαδίτης]
EXTD=
EXTT0=
EXTT1=
EXTT2=
EXTT3=
EXTT4=
EXTT5=
EXTT6=
EXTT7=
EXTT8=
EXTT9=
PLAYORDER=
